<svg xmlns="http://www.w3.org/2000/svg" xmlns:xlink="http://www.w3.org/1999/xlink" viewBox="0 0 314.05 305.74"><defs><style>.cls-1{fill:url(#linear-gradient);}.cls-2{fill:url(#linear-gradient-2);}.cls-3{fill:url(#linear-gradient-3);}.cls-4{fill:url(#linear-gradient-4);}</style><linearGradient id="linear-gradient" x1="313.78" y1="152.95" x2="216.74" y2="152.17" gradientUnits="userSpaceOnUse"><stop offset="0" stop-color="#4c91ed"/><stop offset="0.99" stop-color="#286ecc"/></linearGradient><linearGradient id="linear-gradient-2" x1="157.43" y1="-1.47" x2="156.65" y2="163.66" gradientUnits="userSpaceOnUse"><stop offset="0" stop-color="#4c91ed"/><stop offset="0.99" stop-color="#2f80ed"/></linearGradient><linearGradient id="linear-gradient-3" x1="425.17" y1="460.51" x2="328.13" y2="459.73" gradientTransform="translate(425.44 613.3) rotate(180)" xlink:href="#linear-gradient"/><linearGradient id="linear-gradient-4" x1="268.82" y1="306.09" x2="268.04" y2="471.22" gradientTransform="translate(425.44 613.3) rotate(180)" xlink:href="#linear-gradient-2"/></defs><g id="Layer_2" data-name="Layer 2"><g id="Layer_1-2" data-name="Layer 1"><path class="cls-1" d="M314.05,196.17a2.35,2.35,0,0,1-2.35,2.35h0a200.15,200.15,0,0,1-168.09-91.3H296.85a17.2,17.2,0,0,1,17.2,17.19Z"/><path class="cls-2" d="M202.66,166.27a201.19,201.19,0,0,1-59-59.05A199.21,199.21,0,0,1,111.39,2.39,2.35,2.35,0,0,1,113.75,0h71.71a17.2,17.2,0,0,1,17.2,17.19Z"/><path class="cls-3" d="M0,109.57a2.35,2.35,0,0,1,2.35-2.35h0a200.15,200.15,0,0,1,168.09,91.3H17.19A17.19,17.19,0,0,1,0,181.33Z"/><path class="cls-4" d="M111.39,139.47a201.19,201.19,0,0,1,59.05,59.05,199.2,199.2,0,0,1,32.21,104.83,2.35,2.35,0,0,1-2.35,2.39H128.58a17.19,17.19,0,0,1-17.19-17.19Z"/></g></g></svg>